STARTFONT 2.3
FONT -FontForge-Bitstream Vera Sans Mono-Book-R-Normal-SansMono--10-100-75-75-P-59-FontSpecific-0
SIZE 10 75 75  8
FONTBOUNDINGBOX 7 11 -1 -3
COMMENT "Generated by fontforge, http://fontforge.sourceforge.net"
STARTPROPERTIES 29
FONT_NAME "BitstreamVeraSansMono-Roman"
FONT_ASCENT 8
FONT_DESCENT 2
UNDERLINE_POSITION -213
UNDERLINE_THICKNESS 141
QUAD_WIDTH 10
X_HEIGHT 6
CAP_HEIGHT 4
DEFAULT_CHAR -1
FONTNAME_REGISTRY ""
FAMILY_NAME "Bitstream Vera Sans Mono"
FOUNDRY "FontForge"
WEIGHT_NAME "Book"
SETWIDTH_NAME "Normal"
SLANT "R"
ADD_STYLE_NAME "SansMono-"
PIXEL_SIZE 10
POINT_SIZE 100
RESOLUTION_X 75
RESOLUTION_Y 75
RESOLUTION 75
SPACING "P"
AVERAGE_WIDTH 59
BITS_PER_PIXEL 8
CHARSET_REGISTRY "FontSpecific"
CHARSET_ENCODING "0"
CHARSET_COLLECTIONS "ASCII ISO8859-9 FontSpecific"
FULL_NAME "Bitstream Vera Sans Mono"
COPYRIGHT "Copyright (c) 2003 by Bitstream, Inc. All Rights Reserved."
ENDPROPERTIES
CHARS 269
STARTCHAR .null
ENCODING -1
SWIDTH 0 0
DWIDTH 0 0
BBX 1 1 0 0
BITMAP
00
ENDCHAR
STARTCHAR nonmarkingreturn
ENCODING -1
SWIDTH 602 0
DWIDTH 6 0
BBX 1 1 0 0
BITMAP
00
ENDCHAR
STARTCHAR space
ENCODING -1
SWIDTH 602 0
DWIDTH 6 0
BBX 1 1 0 0
BITMAP
00
ENDCHAR
STARTCHAR exclam
ENCODING -1
SWIDTH 602 0
DWIDTH 6 0
BBX 2 7 2 0
BITMAP
5E4D
8870
8870
846C
6450
1410
8870
ENDCHAR
STARTCHAR quotedbl
ENCODING -1
SWIDTH 602 0
DWIDTH 6 0
BBX 4 3 1 4
BITMAP
42506132
60748C48
4D5D703A
ENDCHAR
STARTCHAR numbersign
ENCODING -1
SWIDTH 602 0
DWIDTH 6 0
BBX 6 7 0 0
BITMAP
0000561D5D15
0000BE07C302
4DB2ECB3EB9A
005074606400
86C5A8CCA12D
24CC26CC240C
1EA32E960000
ENDCHAR
STARTCHAR dollar
ENCODING -1
SWIDTH 602 0
DWIDTH 6 0
BBX 6 9 0 -2
BITMAP
00002D480000
0070B2C29700
10D52B500800
03C8A87E0B00
000561A6CF19
05063050A24B
0FB2B6C7A007
00002C520000
0000101C0000
ENDCHAR
STARTCHAR percent
ENCODING -1
SWIDTH 602 0
DWIDTH 6 0
BBX 6 7 0 0
BITMAP
0D5E2F000000
9F4CAA1D0000
A23EA5201029
116A7C7E6F1B
3C7B3E95A63B
0000446406AB
000012AFA956
ENDCHAR
STARTCHAR ampersand
ENCODING -1
SWIDTH 602 0
DWIDTH 6 0
BBX 6 7 0 0
BITMAP
0038A5A01700
00D01E120D00
00AA45000000
22B8CE1D0441
A03D37C419AD
A3510063D85B
1FB69C9FBF72
ENDCHAR
STARTCHAR quotesingle
ENCODING -1
SWIDTH 602 0
DWIDTH 6 0
BBX 2 3 2 4
BITMAP
5340
785C
604A
ENDCHAR
STARTCHAR parenleft
ENCODING -1
SWIDTH 602 0
DWIDTH 6 0
BBX 3 9 2 -2
BITMAP
04B60B
5D7E00
BB2F00
EB0500
ED0200
C72400
736D00
0DBF04
001A08
ENDCHAR
STARTCHAR parenright
ENCODING -1
SWIDTH 602 0
DWIDTH 6 0
BBX 3 9 1 -2
BITMAP
18AD01
009941
00499F
001ED1
001AD6
003EAC
008658
0CBF04
0D1600
ENDCHAR
STARTCHAR asterisk
ENCODING -1
SWIDTH 602 0
DWIDTH 6 0
BBX 6 5 0 2
BITMAP
00003A270000
0C8775648604
0022D8C81700
0C705D477404
00002A1C0000
ENDCHAR
STARTCHAR plus
ENCODING -1
SWIDTH 602 0
DWIDTH 6 0
BBX 6 6 0 0
BITMAP
00001D160000
000074580000
25409782401F
4A80BAAC803E
000074580000
00003A2C0000
ENDCHAR
STARTCHAR comma
ENCODING -1
SWIDTH 602 0
DWIDTH 6 0
BBX 3 4 1 -2
BITMAP
003739
009F8F
00D520
033600
ENDCHAR
STARTCHAR hyphen
ENCODING -1
SWIDTH 602 0
DWIDTH 6 0
BBX 4 1 1 2
BITMAP
38BCBC27
ENDCHAR
STARTCHAR period
ENCODING -1
SWIDTH 602 0
DWIDTH 6 0
BBX 2 2 2 0
BITMAP
3D33
A88C
ENDCHAR
STARTCHAR slash
ENCODING -1
SWIDTH 602 0
DWIDTH 6 0
BBX 6 8 0 -1
BITMAP
000000039707
000000589000
000003CE1A00
000058910000
0003CE1A0000
005893000000
03CE1B000000
428500000000
ENDCHAR
STARTCHAR zero
ENCODING -1
SWIDTH 602 0
DWIDTH 6 0
BBX 6 7 0 0
BITMAP
002FA19C2500
09DD2936D702
40B70000CC2B
57A18A70B742
4AAC1911C137
16DE060DE50B
006CC3C55C00
ENDCHAR
STARTCHAR one
ENCODING -1
SWIDTH 602 0
DWIDTH 6 0
BBX 5 7 1 0
BITMAP
5EA0840000
5260C00000
0034C00000
0034C00000
0034C00000
0034C00000
8AD1F1C42E
ENDCHAR
STARTCHAR two
ENCODING -1
SWIDTH 602 0
DWIDTH 6 0
BBX 6 8 0 -1
BITMAP
1180AC931F00
22551759D700
0000000DF300
0000008D8000
0000759D0200
00759E020000
3BFAABAAAB0B
061414141402
ENDCHAR
STARTCHAR three
ENCODING -1
SWIDTH 602 0
DWIDTH 6 0
BBX 6 7 0 0
BITMAP
0E8DAC952600
0C371145DC00
0000002CDC00
0017BAE75300
00000011E10E
0A01000CE816
42C6BDCF6E00
ENDCHAR
STARTCHAR four
ENCODING -1
SWIDTH 602 0
DWIDTH 6 0
BBX 6 7 0 0
BITMAP
000003985600
000073C47C00
002A9E7C7C00
04B8167C7C00
6BA754A8A825
366868B2B22E
0000007C7C00
ENDCHAR
STARTCHAR five
ENCODING -1
SWIDTH 602 0
DWIDTH 6 0
BBX 6 7 0 0
BITMAP
03B0B0B06C00
04E210100A00
04EB6A520500
0374559FB300
00000002EC10
0701001BEB06
41CFBECD4E00
ENDCHAR
STARTCHAR six
ENCODING -1
SWIDTH 602 0
DWIDTH 6 0
BBX 6 7 0 0
BITMAP
001B8FAC6900
04D04D122B00
3CA743561000
56E56C65D409
4CBD0000BC3C
1AD40402D32B
0073C4C38900
ENDCHAR
STARTCHAR seven
ENCODING -1
SWIDTH 602 0
DWIDTH 6 0
BBX 6 7 0 0
BITMAP
3AB0B0B0B017
0714142FD301
000000826E00
000006DE1100
00005A9F0000
0000C6370000
0032D0010000
ENDCHAR
STARTCHAR eight
ENCODING -1
SWIDTH 602 0
DWIDTH 6 0
BBX 6 7 0 0
BITMAP
004CA2A04000
1DE01018EA0B
16D80C14DD07
0080D3DC6D00
3CBE0106D726
4FB40001D136
06A7BCC09201
ENDCHAR
STARTCHAR nine
ENCODING -1
SWIDTH 602 0
DWIDTH 6 0
BBX 6 7 0 0
BITMAP
0054A8982200
35D01139D001
65930000DD20
38CF0E33F936
005AA986C628
00010021D703
00ABBEC63700
ENDCHAR
STARTCHAR colon
ENCODING -1
SWIDTH 602 0
DWIDTH 6 0
BBX 2 5 2 0
BITMAP
816C
6454
0000
3D33
A88C
ENDCHAR
STARTCHAR semicolon
ENCODING -1
SWIDTH 602 0
DWIDTH 6 0
BBX 3 7 1 -2
BITMAP
00816C
006454
000000
003739
009F8F
00D520
033600
ENDCHAR
STARTCHAR less
ENCODING -1
SWIDTH 602 0
DWIDTH 6 0
BBX 6 6 0 0
BITMAP
000000000006
00000F64BD61
35A3B5661300
5AC77E260000
000346A5C243
000000000E24
ENDCHAR
STARTCHAR equal
ENCODING -1
SWIDTH 602 0
DWIDTH 6 0
BBX 6 4 0 1
BITMAP
182828282814
58989898984A
33585858582B
3F6C6C6C6C35
ENDCHAR
STARTCHAR greater
ENCODING -1
SWIDTH 602 0
DWIDTH 6 0
BBX 6 6 0 0
BITMAP
060000000000
75B75B0A0000
00196FBB9C2A
00012E88C94A
52C69C3D0100
280A00000000
ENDCHAR
STARTCHAR question
ENCODING -1
SWIDTH 602 0
DWIDTH 6 0
BBX 4 8 1 -1
BITMAP
52A3A235
5A1A3FE1
000048C3
003EC716
009D4A00
00391A00
00AC5000
000E0700
ENDCHAR
STARTCHAR at
ENCODING -1
SWIDTH 602 0
DWIDTH 6 0
BBX 6 9 0 -2
BITMAP
00001B380F00
0394956FBE2F
696309525096
B405B2658EA4
B505C10010A4
B603BE4575A4
745A17734C42
06A57A3D4100
000138685600
ENDCHAR
STARTCHAR A
ENCODING -1
SWIDTH 602 0
DWIDTH 6 0
BBX 6 7 0 0
BITMAP
000085720000
000FD1D50300
005C89A33F00
00B03B579300
0DF57B88E502
57AF4040C43A
AB5200006E8E
ENDCHAR
STARTCHAR B
ENCODING -1
SWIDTH 602 0
DWIDTH 6 0
BBX 6 7 0 0
BITMAP
24B0B0A34800
34C70D24E519
34C40013E41A
34F3C9E19E01
34C40001B24E
34C40000A663
33EABCC3A80C
ENDCHAR
STARTCHAR C
ENCODING -1
SWIDTH 602 0
DWIDTH 6 0
BBX 6 7 0 0
BITMAP
000F80AD900E
01C2630A3813
2ED500000000
4DB600000000
3DC500000000
08E225000508
003AC4BAC619
ENDCHAR
STARTCHAR D
ENCODING -1
SWIDTH 602 0
DWIDTH 6 0
BBX 6 7 0 0
BITMAP
3DB0AA790E00
58A61971C401
58A00000DB2B
58A00000BF49
58A00000CC3A
58A0002BE408
57E3C2C13700
ENDCHAR
STARTCHAR E
ENCODING -1
SWIDTH 602 0
DWIDTH 6 0
BBX 6 7 0 0
BITMAP
0BB0B0B0B021
10EA14141404
10E800000000
10FBC4C4C407
10E800000000
10E800000000
10FBC4C4C435
ENDCHAR
STARTCHAR F
ENCODING -1
SWIDTH 602 0
DWIDTH 6 0
BBX 5 7 1 0
BITMAP
9DB0B0B03A
E42B141407
E418000000
E4CAC4C404
E418000000
E418000000
E418000000
ENDCHAR
STARTCHAR G
ENCODING -1
SWIDTH 602 0
DWIDTH 6 0
BBX 6 7 0 0
BITMAP
001D8EAD7B03
0DD9430A5108
5AA700000000
798A004E7421
6897002EBD48
21DA0D00A448
0057C6BAC322
ENDCHAR
STARTCHAR H
ENCODING -1
SWIDTH 602 0
DWIDTH 6 0
BBX 6 7 0 0
BITMAP
3D6E0000822C
58A00000BC40
58A00000BC40
58EAC4C4F140
58A00000BC40
58A00000BC40
58A00000BC40
ENDCHAR
STARTCHAR I
ENCODING -1
SWIDTH 602 0
DWIDTH 6 0
BBX 5 7 0 0
BITMAP
06B0B0B0A3
0114967C13
00008C7000
00008C7000
00008C7000
00008C7000
07C4E5DFB5
ENDCHAR
STARTCHAR J
ENCODING -1
SWIDTH 602 0
DWIDTH 6 0
BBX 5 7 0 0
BITMAP
002AB0B063
0004107290
0000006890
0000006890
0000006990
200300827C
58CBBFC71C
ENDCHAR
STARTCHAR K
ENCODING -1
SWIDTH 602 0
DWIDTH 6 0
BBX 6 7 0 0
BITMAP
3D6E00017D4C
58A001909201
58A1948E0100
58F6E7550000
58B41FDF1E00
58A0005CC304
58A00001AA7F
ENDCHAR
STARTCHAR L
ENCODING -1
SWIDTH 602 0
DWIDTH 6 0
BBX 5 7 1 0
BITMAP
AB00000000
F800000000
F800000000
F800000000
F800000000
F800000000
F8C4C4C459
ENDCHAR
STARTCHAR M
ENCODING -1
SWIDTH 602 0
DWIDTH 6 0
BBX 6 7 0 0
BITMAP
69920002A456
98DA2340DA7C
987E7F9A837C
984DB2A86C7C
984C54426C7C
984C00006C7C
984C00006C7C
ENDCHAR
STARTCHAR N
ENCODING -1
SWIDTH 602 0
DWIDTH 6 0
BBX 6 7 0 0
BITMAP
3AAD0B007C2A
54F26900B43C
54A3C502B43C
54988749B43C
54981CB4B43C
549800A5DC3C
54980035FF3C
ENDCHAR
STARTCHAR O
ENCODING -1
SWIDTH 602 0
DWIDTH 6 0
BBX 6 7 0 0
BITMAP
0038A39E2C00
14E12530DF08
55A90000C23E
6B950000AE56
5F9F0000B74A
29D60307E317
007EC5C66A00
ENDCHAR
STARTCHAR P
ENCODING -1
SWIDTH 602 0
DWIDTH 6 0
BBX 6 7 0 0
BITMAP
09B0B0A75E01
0CEA0C20D14A
0CEA0000986E
0CF57487E122
0CF248410D00
0CEC00000000
0CE500000000
ENDCHAR
STARTCHAR Q
ENCODING -1
SWIDTH 602 0
DWIDTH 6 0
BBX 6 9 0 -2
BITMAP
0038A39D2900
13DE2A3EDD05
56A70000C937
6E920000B351
67970000B84B
3AC20002E220
01B79DAF9B00
000334968C00
000000012100
ENDCHAR
STARTCHAR R
ENCODING -1
SWIDTH 602 0
DWIDTH 6 0
BBX 6 7 0 0
BITMAP
3AB0B0982D00
54AE1146E805
54AA0004F110
54DD95B77400
54B82E977F00
54A80007DB20
54A8000066A0
ENDCHAR
STARTCHAR S
ENCODING -1
SWIDTH 602 0
DWIDTH 6 0
BBX 6 7 0 0
BITMAP
0045A3A76700
29CF20144B00
44C108000000
038DDFBD5400
0000012DDF27
0E0A0001C536
25C6BAC79402
ENDCHAR
STARTCHAR T
ENCODING -1
SWIDTH 602 0
DWIDTH 6 0
BBX 6 7 0 0
BITMAP
8AB0B0B0B077
1014927C140E
000088700000
000088700000
000088700000
000088700000
000088700000
ENDCHAR
STARTCHAR U
ENCODING -1
SWIDTH 602 0
DWIDTH 6 0
BBX 6 7 0 0
BITMAP
3A7100009219
52A40000D424
50A40000D424
4EA40000D424
4CA40000D523
36B70004E311
029CBFC87C00
ENDCHAR
STARTCHAR V
ENCODING -1
SWIDTH 602 0
DWIDTH 6 0
BBX 6 7 0 0
BITMAP
6F400000545B
5D9B0000B640
12DF0109E304
00BD2D47A000
006D758F5000
001EBDCE0A00
0000C9B00000
ENDCHAR
STARTCHAR W
ENCODING -1
SWIDTH 602 0
DWIDTH 6 0
BBX 6 7 0 0
BITMAP
A30100001196
D116000033B7
A8378F77538E
7F57B7AF7464
579198A7993B
2EE85972E712
08FD1C34E900
ENDCHAR
STARTCHAR X
ENCODING -1
SWIDTH 602 0
DWIDTH 6 0
BBX 6 7 0 0
BITMAP
41760000694B
04C9342ACC07
002DC7C03000
0000B0AF0000
003CC1BE3500
0BD2262CCD06
927400008A7D
ENDCHAR
STARTCHAR Y
ENCODING -1
SWIDTH 602 0
DWIDTH 6 0
BBX 6 7 0 0
BITMAP
6D4800005B5A
23D60915D912
007A809A5D00
0006CEBC0100
00008C700000
00008C700000
00008C700000
ENDCHAR
STARTCHAR Z
ENCODING -1
SWIDTH 602 0
DWIDTH 6 0
BBX 6 7 0 0
BITMAP
19B0B0B0B056
03141421DD2B
0000009D6A00
00004FB30100
0016D2160000
01AF48000000
38F6C4C4C475
ENDCHAR
STARTCHAR bracketleft
ENCODING -1
SWIDTH 602 0
DWIDTH 6 0
BBX 3 9 2 -2
BITMAP
C2AC29
C81800
C81800
C81800
C81800
C81800
C81800
C87E1C
29340D
ENDCHAR
STARTCHAR backslash
ENCODING -1
SWIDTH 602 0
DWIDTH 6 0
BBX 6 8 0 -1
BITMAP
3D6600000000
08D410000000
006C7F000000
0008D4100000
00006C7E0000
000008D30F00
0000006C7C00
00000008B607
ENDCHAR
STARTCHAR bracketright
ENCODING -1
SWIDTH 602 0
DWIDTH 6 0
BBX 3 9 1 -2
BITMAP
39B6AB
0034B0
0034B0
0034B0
0034B0
0034B0
0034B0
278EB0
123424
ENDCHAR
STARTCHAR asciicircum
ENCODING -1
SWIDTH 602 0
DWIDTH 6 0
BBX 6 3 0 4
BITMAP
000187770000
00827F966B00
3F7D00028D2F
ENDCHAR
STARTCHAR underscore
ENCODING -1
SWIDTH 602 0
DWIDTH 6 0
BBX 5 2 0 -3
BITMAP
3434343430
2828282825
ENDCHAR
STARTCHAR grave
ENCODING -1
SWIDTH 602 0
DWIDTH 6 0
BBX 3 3 1 5
BITMAP
2C2300
13B314
00182B
ENDCHAR
STARTCHAR a
ENCODING -1
SWIDTH 602 0
DWIDTH 6 0
BBX 6 5 0 0
BITMAP
00ABB2BD7C00
00060B15DD09
10B89C86EA15
4E93000BF016
13B9959DE117
ENDCHAR
STARTCHAR b
ENCODING -1
SWIDTH 602 0
DWIDTH 6 0
BBX 6 7 0 0
BITMAP
11AD00000000
14CC00000000
14E3ABB98700
14F20C01C728
14D20000A049
14F10C01C627
12C9AAB88600
ENDCHAR
STARTCHAR c
ENCODING -1
SWIDTH 602 0
DWIDTH 6 0
BBX 6 5 0 0
BITMAP
0038BFAEB50E
00D823000304
05E400000000
00D724000303
0038BFAEB40E
ENDCHAR
STARTCHAR d
ENCODING -1
SWIDTH 602 0
DWIDTH 6 0
BBX 5 7 0 0
BITMAP
00000000BD
00000000DF
029CB3A9E7
41AB001CF7
62820000E8
3FAB001BF7
019CB2A6CD
ENDCHAR
STARTCHAR e
ENCODING -1
SWIDTH 602 0
DWIDTH 6 0
BBX 6 5 0 0
BITMAP
007AB8B28B01
3AC00100AF34
65D39D9EA93A
38BA01000304
0077BBADB713
ENDCHAR
STARTCHAR f
ENCODING -1
SWIDTH 602 0
DWIDTH 6 0
BBX 6 7 0 0
BITMAP
000043C7B510
00009D450000
0BA4DEBBA410
0000A0400000
0000A0400000
0000A0400000
0000A0400000
ENDCHAR
STARTCHAR g
ENCODING -1
SWIDTH 602 0
DWIDTH 6 0
BBX 5 7 0 -2
BITMAP
0199A39DF1
41B0000EFA
628E0000E8
3BBB0018FD
0197BBA3EB
0004000FD6
0098B0BC4A
ENDCHAR
STARTCHAR h
ENCODING -1
SWIDTH 602 0
DWIDTH 6 0
BBX 6 7 0 0
BITMAP
0CCE00000000
0CD400000000
0CE19FC88E00
0CEF0A03E603
0CD50000DC08
0CD40000DC08
0CD40000DC08
ENDCHAR
STARTCHAR i
ENCODING -1
SWIDTH 602 0
DWIDTH 6 0
BBX 6 7 0 0
BITMAP
000065790000
0000090A0000
0081CA7C0000
0000687C0000
0000687C0000
0000687C0000
18A4CAD1A424
ENDCHAR
STARTCHAR j
ENCODING -1
SWIDTH 602 0
DWIDTH 6 0
BBX 4 9 0 -2
BITMAP
000023B7
0000030F
006CB1BC
000024BC
000023BC
000022BC
000021BC
000032B1
14B4C542
ENDCHAR
STARTCHAR k
ENCODING -1
SWIDTH 602 0
DWIDTH 6 0
BBX 5 7 1 0
BITMAP
D908000000
E008000000
E00844BB15
E062B20B00
E0B1C20600
E0087D9300
E00802B65C
ENDCHAR
STARTCHAR l
ENCODING -1
SWIDTH 602 0
DWIDTH 6 0
BBX 5 7 0 0
BITMAP
27A4F11000
0000D41000
0000D41000
0000D41000
0000D41000
0000CC1C00
00005FCBA9
ENDCHAR
STARTCHAR m
ENCODING -1
SWIDTH 602 0
DWIDTH 6 0
BBX 6 5 0 0
BITMAP
74B3CB9FC328
745E73676B61
74586D606568
74586C606468
74586C606468
ENDCHAR
STARTCHAR n
ENCODING -1
SWIDTH 602 0
DWIDTH 6 0
BBX 6 5 0 0
BITMAP
0CE592B09000
0CEB0501E403
0CD40000DC08
0CD40000DC08
0CD40000DC08
ENDCHAR
STARTCHAR o
ENCODING -1
SWIDTH 602 0
DWIDTH 6 0
BBX 6 5 0 0
BITMAP
0189BBC07400
34C50104D91C
569A0000B43D
32C40103D91C
018AB8BD7500
ENDCHAR
STARTCHAR p
ENCODING -1
SWIDTH 602 0
DWIDTH 6 0
BBX 6 7 0 -2
BITMAP
18E69EA28500
18EE0700C026
18D200009F45
18F20C01C924
18E2ADBD8400
18CC00000000
16B900000000
ENDCHAR
STARTCHAR q
ENCODING -1
SWIDTH 602 0
DWIDTH 6 0
BBX 6 8 0 -3
BITMAP
0085BFAED00B
2AC60114FB0C
529A0000E00C
3CB20006F40C
03C18BA5F20C
0005391BD80C
00000000D80C
000000000701
ENDCHAR
STARTCHAR r
ENCODING -1
SWIDTH 602 0
DWIDTH 6 0
BBX 5 5 1 0
BITMAP
40C0A4A869
40D9060001
40A6000000
40A4000000
40A4000000
ENDCHAR
STARTCHAR s
ENCODING -1
SWIDTH 602 0
DWIDTH 6 0
BBX 4 5 1 0
BITMAP
7EB7AB7A
E4140001
50B3C264
030011E5
B4ACB972
ENDCHAR
STARTCHAR t
ENCODING -1
SWIDTH 602 0
DWIDTH 6 0
BBX 5 7 0 0
BITMAP
00005F0000
0000E00000
3EA4F5A49A
0000E00000
0000E00000
0000E20100
000093BA9B
ENDCHAR
STARTCHAR u
ENCODING -1
SWIDTH 602 0
DWIDTH 6 0
BBX 6 5 0 0
BITMAP
10D00000E004
10D00000E004
10D00000E104
09DA0009F404
009CAB90EB04
ENDCHAR
STARTCHAR v
ENCODING -1
SWIDTH 602 0
DWIDTH 6 0
BBX 6 5 0 0
BITMAP
54940000B03B
07D90714D301
0091526C7800
0030B1C71A00
0000CAB50000
ENDCHAR
STARTCHAR w
ENCODING -1
SWIDTH 602 0
DWIDTH 6 0
BBX 6 5 0 0
BITMAP
D806000017C7
A037493A5287
6071A2968D46
20BC8C96C50B
00E0405CC400
ENDCHAR
STARTCHAR x
ENCODING -1
SWIDTH 602 0
DWIDTH 6 0
BBX 6 5 0 0
BITMAP
21C9101DCA13
0044B1BE3000
0001BFA60000
006F91A75500
42C0050CC92D
ENDCHAR
STARTCHAR y
ENCODING -1
SWIDTH 602 0
DWIDTH 6 0
BBX 6 7 0 -2
BITMAP
4BA400009F4F
03D61310D804
0075726B7B00
0013CFCC1800
00009EA80000
0000B13D0000
14B796010000
ENDCHAR
STARTCHAR z
ENCODING -1
SWIDTH 602 0
DWIDTH 6 0
BBX 5 5 0 0
BITMAP
0099A8B2F5
000002AB58
0000897A00
00659E0100
07FAB2ACAA
ENDCHAR
STARTCHAR braceleft
ENCODING -1
SWIDTH 602 0
DWIDTH 6 0
BBX 4 9 1 -2
BITMAP
002BC189
00757600
00797000
0CA75600
98D61D00
00826C00
00787000
0066A323
0008666B
ENDCHAR
STARTCHAR bar
ENCODING -1
SWIDTH 602 0
DWIDTH 6 0
BBX 2 10 2 -3
BITMAP
785C
785C
785C
785C
785C
785C
785C
785C
785C
130F
ENDCHAR
STARTCHAR braceright
ENCODING -1
SWIDTH 602 0
DWIDTH 6 0
BBX 4 9 1 -2
BITMAP
9BBE1900
00925400
008C5900
00728D0C
0031D681
00896100
008D5800
29BB4400
775C0200
ENDCHAR
STARTCHAR asciitilde
ENCODING -1
SWIDTH 602 0
DWIDTH 6 0
BBX 6 2 0 2
BITMAP
156D66150928
585565B5BB38
ENDCHAR
STARTCHAR nonbreakingspace
ENCODING -1
SWIDTH 602 0
DWIDTH 6 0
BBX 1 1 0 0
BITMAP
00
ENDCHAR
STARTCHAR exclamdown
ENCODING -1
SWIDTH 602 0
DWIDTH 6 0
BBX 2 7 2 0
BITMAP
5E4D
3E33
3E31
8068
8870
8870
8870
ENDCHAR
STARTCHAR cent
ENCODING -1
SWIDTH 602 0
DWIDTH 6 0
BBX 5 9 1 -2
BITMAP
0000240000
0000800000
2EBAD0A210
C72E840000
EC01840000
C338840001
29B9D7B00F
00007C0000
0000230000
ENDCHAR
STARTCHAR sterling
ENCODING -1
SWIDTH 602 0
DWIDTH 6 0
BBX 6 7 0 0
BITMAP
000042A6A01B
000FE9241612
002FCA000000
1088E06C3C00
085BD4341D00
0030C8000000
3CCCF2C0C042
ENDCHAR
STARTCHAR currency
ENCODING -1
SWIDTH 602 0
DWIDTH 6 0
BBX 5 5 1 0
BITMAP
8644508212
5F7B4C9C00
6842109500
988788AB11
0500000500
ENDCHAR
STARTCHAR yen
ENCODING -1
SWIDTH 602 0
DWIDTH 6 0
BBX 6 7 0 0
BITMAP
6D4800005B59
23D70915D711
149E809A8110
2754CFC0541D
3A80C6B8802C
00008C700000
00008C700000
ENDCHAR
STARTCHAR brokenbar
ENCODING -1
SWIDTH 602 0
DWIDTH 6 0
BBX 2 9 2 -2
BITMAP
3126
785C
785C
775B
0000
644D
785C
785C
4434
ENDCHAR
STARTCHAR section
ENCODING -1
SWIDTH 602 0
DWIDTH 6 0
BBX 5 8 0 -1
BITMAP
002B9DA241
00AF430518
007AD44800
04C3169897
01BC5603D4
000776D965
000200599A
0076A6BA3B
ENDCHAR
STARTCHAR dieresis
ENCODING -1
SWIDTH 602 0
DWIDTH 6 0
BBX 4 1 1 6
BITMAP
6D748A57
ENDCHAR
STARTCHAR copyright
ENCODING -1
SWIDTH 602 0
DWIDTH 6 0
BBX 6 7 0 0
BITMAP
00000A090000
12836D70810C
855A8973247E
80AA0100007D
888B47260C86
3A7D5C6A882E
00165E5A1100
ENDCHAR
STARTCHAR ordfeminine
ENCODING -1
SWIDTH 602 0
DWIDTH 6 0
BBX 4 5 1 2
BITMAP
33858D1A
0D4A7D87
9B4E5092
6D9D9481
568C8C54
ENDCHAR
STARTCHAR guillemotleft
ENCODING -1
SWIDTH 602 0
DWIDTH 6 0
BBX 5 5 0 0
BITMAP
0001530054
09A05F8283
4BB02CC90F
004C9A30B6
0000160016
ENDCHAR
STARTCHAR logicalnot
ENCODING -1
SWIDTH 602 0
DWIDTH 6 0
BBX 6 3 0 1
BITMAP
72C4C4C4CC6B
00000000547C
000000001D2B
ENDCHAR
STARTCHAR sfthyphen
ENCODING -1
SWIDTH 602 0
DWIDTH 6 0
BBX 4 1 1 2
BITMAP
38BCBC27
ENDCHAR
STARTCHAR registered
ENCODING -1
SWIDTH 602 0
DWIDTH 6 0
BBX 6 7 0 0
BITMAP
00000A080000
14846F727E09
8648928D3178
7D4499A0187E
86445C8D2684
418329279A2B
001A625C1000
ENDCHAR
STARTCHAR macron
ENCODING -1
SWIDTH 602 0
DWIDTH 6 0
BBX 4 1 1 6
BITMAP
52A8A83F
ENDCHAR
STARTCHAR degree
ENCODING -1
SWIDTH 602 0
DWIDTH 6 0
BBX 4 4 1 3
BITMAP
138D8A0C
842C3B6C
4B9B9F37
00131000
ENDCHAR
STARTCHAR plusminus
ENCODING -1
SWIDTH 602 0
DWIDTH 6 0
BBX 6 6 0 0
BITMAP
00001D160000
000074580000
6FC0DDD6C05D
000074580000
0000392B0000
72C4C4C4C45F
ENDCHAR
STARTCHAR twosuperior
ENCODING -1
SWIDTH 602 0
DWIDTH 6 0
BBX 4 5 1 2
BITMAP
377F8006
0400942C
004C7900
49C56A1D
0C181807
ENDCHAR
STARTCHAR threesuperior
ENCODING -1
SWIDTH 602 0
DWIDTH 6 0
BBX 4 5 1 2
BITMAP
2A7C870E
00169338
003F9933
3557A441
07291400
ENDCHAR
STARTCHAR acute
ENCODING -1
SWIDTH 602 0
DWIDTH 6 0
BBX 3 3 2 5
BITMAP
002B23
21AF0A
351000
ENDCHAR
STARTCHAR mu
ENCODING -1
SWIDTH 602 0
DWIDTH 6 0
BBX 6 7 0 -2
BITMAP
14CC0000E000
14CC0000E000
13CC0000E100
13E0030BF501
12E0B8BCC571
12BC00000000
0FAB00000000
ENDCHAR
STARTCHAR paragraph
ENCODING -1
SWIDTH 602 0
DWIDTH 6 0
BBX 5 8 0 -1
BITMAP
0162AA9699
55FFFF54AC
71FFFF54AC
14C2FF54AC
00005D54AC
00005854AC
00005854AC
00004C4994
ENDCHAR
STARTCHAR periodcentered
ENCODING -1
SWIDTH 602 0
DWIDTH 6 0
BBX 2 2 2 2
BITMAP
937B
5446
ENDCHAR
STARTCHAR cedilla
ENCODING -1
SWIDTH 602 0
DWIDTH 6 0
BBX 3 2 1 -2
BITMAP
00099A
0E9182
ENDCHAR
STARTCHAR onesuperior
ENCODING -1
SWIDTH 602 0
DWIDTH 6 0
BBX 4 5 1 2
BITMAP
30914800
00486800
00486800
1E99AB2A
040C0C05
ENDCHAR
STARTCHAR ordmasculine
ENCODING -1
SWIDTH 602 0
DWIDTH 6 0
BBX 4 6 1 1
BITMAP
228D8A17
B2152B9C
BA0312AD
4C9AA13A
5C88884D
03040403
ENDCHAR
STARTCHAR guillemotright
ENCODING -1
SWIDTH 602 0
DWIDTH 6 0
BBX 6 5 0 0
BITMAP
0F4600540000
03956E728F04
0018D120C037
0BB723AA3C00
070F00160000
ENDCHAR
STARTCHAR onequarter
ENCODING -1
SWIDTH 602 0
DWIDTH 6 0
BBX 6 10 0 -2
BITMAP
2D6713000000
21942C000000
00842C000000
189C54070000
286098878423
6B753C305C00
00000A81A900
00008833B308
00005160C917
000000002300
ENDCHAR
STARTCHAR onehalf
ENCODING -1
SWIDTH 602 0
DWIDTH 6 0
BBX 6 10 0 -2
BITMAP
2D6713000000
21942C000000
00842C000000
189C54070000
286098878423
6B756D836701
00000D019E26
0000003E8501
000043B94F13
00001A34340D
ENDCHAR
STARTCHAR threequarters
ENCODING -1
SWIDTH 602 0
DWIDTH 6 0
BBX 6 10 0 -2
BITMAP
257658010000
0F08A22A0000
0060B6150000
22229B3F0000
246A7F7A8423
6B7740305900
00000882A900
00008331B207
00005564CB18
000000002800
ENDCHAR
STARTCHAR questiondown
ENCODING -1
SWIDTH 602 0
DWIDTH 6 0
BBX 5 7 0 0
BITMAP
0000456300
00002C3F00
0000598000
0003A85B00
009E7D0100
06F5040017
0089CDBA81
ENDCHAR
STARTCHAR Agrave
ENCODING -1
SWIDTH 602 0
DWIDTH 6 0
BBX 6 9 0 0
BITMAP
000667020000
0000493E0000
000085720000
000FD1D50300
005C89A33F00
00B03B579300
0DF57B88E502
57AF4040C43A
AB5200006E8E
ENDCHAR
STARTCHAR Aacute
ENCODING -1
SWIDTH 602 0
DWIDTH 6 0
BBX 6 9 0 0
BITMAP
000006670200
000050390000
000085720000
000FD1D50300
005C89A33F00
00B03B579300
0DF57B88E502
57AF4040C43A
AB5200006E8E
ENDCHAR
STARTCHAR Acircumflex
ENCODING -1
SWIDTH 602 0
DWIDTH 6 0
BBX 6 9 0 0
BITMAP
00005C520000
002855631900
000085720000
000FD1D50300
005C89A33F00
00B03B579300
0DF57B88E502
57AF4040C43A
AB5200006E8E
ENDCHAR
STARTCHAR Atilde
ENCODING -1
SWIDTH 602 0
DWIDTH 6 0
BBX 6 9 0 0
BITMAP
002063223600
004D337F2000
000085720000
000FD1D50300
005C89A33F00
00B03B579300
0DF57B88E502
57AF4040C43A
AB5200006E8E
ENDCHAR
STARTCHAR Adieresis
ENCODING -1
SWIDTH 602 0
DWIDTH 6 0
BBX 6 9 0 0
BITMAP
002D30392400
004044513300
000085720000
000FD1D50300
005C89A33F00
00B03B579300
0DF57B88E502
57AF4040C43A
AB5200006E8E
ENDCHAR
STARTCHAR Aring
ENCODING -1
SWIDTH 602 0
DWIDTH 6 0
BBX 6 9 0 0
BITMAP
000260550000
004965783000
001FBDB71100
0010D3D60300
005C89A43F00
00B03C579300
0DF57B88E502
57B14444C63A
AB5200006F8E
ENDCHAR
STARTCHAR AE
ENCODING -1
SWIDTH 602 0
DWIDTH 6 0
BBX 6 7 0 0
BITMAP
0018B0B0B063
006273E7140C
00AE22E40000
06CC00F1C450
44CF78EA0000
907848E80000
D40C00F1C47E
ENDCHAR
STARTCHAR Ccedilla
ENCODING -1
SWIDTH 602 0
DWIDTH 6 0
BBX 6 9 0 -2
BITMAP
000F80AD900E
01C2630A3813
2ED500000000
4EB600000000
3EC500000000
09E325000508
003AC4BAC619
000000723100
00005AA22600
ENDCHAR
STARTCHAR Egrave
ENCODING -1
SWIDTH 602 0
DWIDTH 6 0
BBX 6 9 0 0
BITMAP
000267050000
00003B4D0000
0BB0B0B0B021
10EA14141404
10E800000000
10FBC4C4C407
10E800000000
10E800000000
10FBC4C4C435
ENDCHAR
STARTCHAR Eacute
ENCODING -1
SWIDTH 602 0
DWIDTH 6 0
BBX 6 9 0 0
BITMAP
000002680500
000041460000
0BB0B0B0B021
10EA14141404
10E800000000
10FBC4C4C407
10E800000000
10E800000000
10FBC4C4C435
ENDCHAR
STARTCHAR Ecircumflex
ENCODING -1
SWIDTH 602 0
DWIDTH 6 0
BBX 6 9 0 0
BITMAP
0000545A0000
001C61572500
0BB0B0B0B021
10EA14141404
10E800000000
10FBC4C4C407
10E800000000
10E800000000
10FBC4C4C435
ENDCHAR
STARTCHAR Edieresis
ENCODING -1
SWIDTH 602 0
DWIDTH 6 0
BBX 6 9 0 0
BITMAP
002638322C00
00364F473E00
0BB0B0B0B021
10EA14141404
10E800000000
10FBC4C4C407
10E800000000
10E800000000
10FBC4C4C435
ENDCHAR
STARTCHAR Igrave
ENCODING -1
SWIDTH 602 0
DWIDTH 6 0
BBX 5 9 0 0
BITMAP
0006670200
0000493E00
06B0B0B0A3
0114967C13
00008C7000
00008C7000
00008C7000
00008C7000
07C4E5DFB5
ENDCHAR
STARTCHAR Iacute
ENCODING -1
SWIDTH 602 0
DWIDTH 6 0
BBX 5 9 0 0
BITMAP
0000066702
0000503900
06B0B0B0A3
0114967C13
00008C7000
00008C7000
00008C7000
00008C7000
07C4E5DFB5
ENDCHAR
STARTCHAR Icircumflex
ENCODING -1
SWIDTH 602 0
DWIDTH 6 0
BBX 5 9 0 0
BITMAP
00005C5200
0028556319
06B0B0B0A3
0114967C13
00008C7000
00008C7000
00008C7000
00008C7000
07C4E5DFB5
ENDCHAR
STARTCHAR Idieresis
ENCODING -1
SWIDTH 602 0
DWIDTH 6 0
BBX 5 9 0 0
BITMAP
002D303924
0040445133
06B0B0B0A3
0114967C13
00008C7000
00008C7000
00008C7000
00008C7000
07C4E5DFB5
ENDCHAR
STARTCHAR Eth
ENCODING -1
SWIDTH 602 0
DWIDTH 6 0
BBX 6 7 0 0
BITMAP
40B0A6730B00
5CA81D77BA00
5CA00001DF23
C5E19700C341
5CA00000D033
5CA0002AE105
5CE5C2C13500
ENDCHAR
STARTCHAR Ntilde
ENCODING -1
SWIDTH 602 0
DWIDTH 6 0
BBX 6 9 0 0
BITMAP
00285F272D00
005435801700
3AAD0B007C2A
54F26900B43C
54A3C502B43C
54988749B43C
54981CB4B43C
549800A5DC3C
54980035FF3C
ENDCHAR
STARTCHAR Ograve
ENCODING -1
SWIDTH 602 0
DWIDTH 6 0
BBX 6 9 0 0
BITMAP
000651000000
00005F3F0000
0038A39E2C00
14E12530DF08
55A90000C23E
6B950000AE56
5F9F0000B74A
29D60307E317
007EC5C66A00
ENDCHAR
STARTCHAR Oacute
ENCODING -1
SWIDTH 602 0
DWIDTH 6 0
BBX 6 9 0 0
BITMAP
000002540200
0000544C0000
0038A39E2C00
14E12530DF08
55A90000C23E
6B950000AE56
5F9F0000B74A
29D60307E317
007EC5C66A00
ENDCHAR
STARTCHAR Ocircumflex
ENCODING -1
SWIDTH 602 0
DWIDTH 6 0
BBX 6 9 0 0
BITMAP
0000473C0000
00286B791900
0038A39E2C00
14E12530DF08
55A90000C23E
6B950000AE56
5F9F0000B74A
29D60307E317
007EC5C66A00
ENDCHAR
STARTCHAR Otilde
ENCODING -1
SWIDTH 602 0
DWIDTH 6 0
BBX 6 9 0 0
BITMAP
0013470E2A00
00594E8F2C00
0038A39E2C00
14E12530DF08
55A90000C23E
6B950000AE56
5F9F0000B74A
29D60307E317
007EC5C66A00
ENDCHAR
STARTCHAR Odieresis
ENCODING -1
SWIDTH 602 0
DWIDTH 6 0
BBX 6 9 0 0
BITMAP
002022291A00
004D52623E00
0038A39E2C00
14E12530DF08
55A90000C23E
6B950000AE56
5F9F0000B74A
29D60307E317
007EC5C66A00
ENDCHAR
STARTCHAR multiply
ENCODING -1
SWIDTH 602 0
DWIDTH 6 0
BBX 6 5 0 0
BITMAP
13A80B13AC09
0051BEC53D00
0024D0C81700
14CB2938C508
000E00000D00
ENDCHAR
STARTCHAR Oslash
ENCODING -1
SWIDTH 602 0
DWIDTH 6 0
BBX 6 8 0 -1
BITMAP
0037A29E466A
12E12536FE18
55AF0089E03D
6B9A5963AF52
61C49200B847
39F00B09E516
9497C8CA6900
0B0000000000
ENDCHAR
STARTCHAR Ugrave
ENCODING -1
SWIDTH 602 0
DWIDTH 6 0
BBX 6 9 0 0
BITMAP
000866010000
00004F380000
3A7100009219
52A40000D424
50A40000D424
4EA40000D424
4CA40000D523
36B70004E311
029CBFC87C00
ENDCHAR
STARTCHAR Uacute
ENCODING -1
SWIDTH 602 0
DWIDTH 6 0
BBX 6 9 0 0
BITMAP
000008660100
000055320000
3A7100009219
52A40000D424
50A40000D424
4EA40000D424
4CA40000D523
36B70004E311
029CBFC87C00
ENDCHAR
STARTCHAR Ucircumflex
ENCODING -1
SWIDTH 602 0
DWIDTH 6 0
BBX 6 9 0 0
BITMAP
0000604E0000
002D50671600
3A7100009219
52A40000D424
50A40000D424
4EA40000D424
4CA40000D523
36B70004E311
029CBFC87C00
ENDCHAR
STARTCHAR Udieresis
ENCODING -1
SWIDTH 602 0
DWIDTH 6 0
BBX 6 9 0 0
BITMAP
00302D3C2000
004440552D00
3A7100009219
52A40000D424
50A40000D424
4EA40000D424
4CA40000D523
36B70004E311
029CBFC87C00
ENDCHAR
STARTCHAR Yacute
ENCODING -1
SWIDTH 602 0
DWIDTH 6 0
BBX 6 9 0 0
BITMAP
000006670200
000050390000
6D4800005B5A
23D60915D912
007A809A5D00
0006CEBC0100
00008C700000
00008C700000
00008C700000
ENDCHAR
STARTCHAR Thorn
ENCODING -1
SWIDTH 602 0
DWIDTH 6 0
BBX 6 7 0 0
BITMAP
06A300000000
08F67C774100
08F24452D558
08EC00007D8C
08F56875E246
08F354501F00
08E900000000
ENDCHAR
STARTCHAR germandbls
ENCODING -1
SWIDTH 602 0
DWIDTH 6 0
BBX 6 7 0 0
BITMAP
0082B8BB5100
15DD012AD700
18CC45A21400
18CC6A9E0600
18CC0376C718
18CC00007E6C
18CC8C97BB25
ENDCHAR
STARTCHAR agrave
ENCODING -1
SWIDTH 602 0
DWIDTH 6 0
BBX 6 8 0 0
BITMAP
002C23000000
0013B3140000
0000182B0000
00ABB2BD7C00
00060B15DD09
10B89C86EA15
4E93000BF016
13B9959DE117
ENDCHAR
STARTCHAR aacute
ENCODING -1
SWIDTH 602 0
DWIDTH 6 0
BBX 6 8 0 0
BITMAP
0000002B2300
000021AF0A00
000035100000
00ABB2BD7C00
00060B15DD09
10B89C86EA15
4E93000BF016
13B9959DE117
ENDCHAR
STARTCHAR acircumflex
ENCODING -1
SWIDTH 602 0
DWIDTH 6 0
BBX 6 8 0 0
BITMAP
00002C230000
0015A7A90B00
0029151D2000
00ABB2BD7C00
00060B15DD09
10B89C86EA15
4E93000BF016
13B9959DE117
ENDCHAR
STARTCHAR atilde
ENCODING -1
SWIDTH 602 0
DWIDTH 6 0
BBX 6 8 0 0
BITMAP
000210041000
007A999C5F00
001600160100
00ABB2BD7C00
00060B15DD09
10B89C86EA15
4E93000BF016
13B9959DE117
ENDCHAR
STARTCHAR adieresis
ENCODING -1
SWIDTH 602 0
DWIDTH 6 0
BBX 6 7 0 0
BITMAP
006D748A5700
000000000000
00ABB2BD7C00
00060B15DD09
10B89C86EA15
4E93000BF016
13B9959DE117
ENDCHAR
STARTCHAR aring
ENCODING -1
SWIDTH 602 0
DWIDTH 6 0
BBX 6 9 0 0
BITMAP
000004030000
0024A5A71700
004377882F00
00014C430000
00ABB2BD7C00
00060B15DD09
10B89C86EA15
4E93000BF016
13B9959DE117
ENDCHAR
STARTCHAR ae
ENCODING -1
SWIDTH 602 0
DWIDTH 6 0
BBX 6 5 0 0
BITMAP
54AAC0BBBD55
00006B7216AF
53AEC4C39D84
C60A726E0002
74B9ADB4A96C
ENDCHAR
STARTCHAR ccedilla
ENCODING -1
SWIDTH 602 0
DWIDTH 6 0
BBX 6 7 0 -2
BITMAP
0038BFAEB50E
00D823000304
06E400000000
00D924000303
0039BFAEB40E
0000006E3600
000058A22A00
ENDCHAR
STARTCHAR egrave
ENCODING -1
SWIDTH 602 0
DWIDTH 6 0
BBX 6 8 0 0
BITMAP
002628000000
000DB11B0000
000013310000
007AB8B28B01
3AC00100AF34
65D39D9EA93A
38BA01000304
0077BBADB713
ENDCHAR
STARTCHAR eacute
ENCODING -1
SWIDTH 602 0
DWIDTH 6 0
BBX 6 8 0 0
BITMAP
000000262800
000018B10F00
00002E150000
007AB8B28B01
3AC00100AF34
65D39D9EA93A
38BA01000304
0077BBADB713
ENDCHAR
STARTCHAR ecircumflex
ENCODING -1
SWIDTH 602 0
DWIDTH 6 0
BBX 6 8 0 0
BITMAP
0000262A0000
000EA9A81100
00231A182600
007AB8B28B01
3AC00100AF34
65D39D9EA93A
38BA01000304
0077BBADB713
ENDCHAR
STARTCHAR edieresis
ENCODING -1
SWIDTH 602 0
DWIDTH 6 0
BBX 6 7 0 0
BITMAP
005F837C6600
000000000000
007AB8B28B01
3AC00100AF34
65D39D9EA93A
38BA01000304
0077BBADB713
ENDCHAR
STARTCHAR igrave
ENCODING -1
SWIDTH 602 0
DWIDTH 6 0
BBX 6 8 0 0
BITMAP
002C23000000
0013B3140000
0000182B0000
0081CA7C0000
0000687C0000
0000687C0000
0000687C0000
18A4CAD1A424
ENDCHAR
STARTCHAR iacute
ENCODING -1
SWIDTH 602 0
DWIDTH 6 0
BBX 6 8 0 0
BITMAP
0000002B2300
000021AF0A00
000035100000
0081CA7C0000
0000687C0000
0000687C0000
0000687C0000
18A4CAD1A424
ENDCHAR
STARTCHAR icircumflex
ENCODING -1
SWIDTH 602 0
DWIDTH 6 0
BBX 6 8 0 0
BITMAP
00002C230000
0015A7A90B00
0029151D2000
0081CA7C0000
0000687C0000
0000687C0000
0000687C0000
18A4CAD1A424
ENDCHAR
STARTCHAR idieresis
ENCODING -1
SWIDTH 602 0
DWIDTH 6 0
BBX 6 7 0 0
BITMAP
006D748A5700
000000000000
0081CA7C0000
0000687C0000
0000687C0000
0000687C0000
18A4CAD1A424
ENDCHAR
STARTCHAR eth
ENCODING -1
SWIDTH 602 0
DWIDTH 6 0
BBX 6 7 0 0
BITMAP
002AC66F4400
005F6EC70E00
0072BAC8A000
28CF0302DC17
4D9F0000B43D
2BCB0105DB1C
0083C0C37400
ENDCHAR
STARTCHAR ntilde
ENCODING -1
SWIDTH 602 0
DWIDTH 6 0
BBX 6 8 0 0
BITMAP
000210041000
007A999C5F00
001600160100
0CE592B09000
0CEB0501E403
0CD40000DC08
0CD40000DC08
0CD40000DC08
ENDCHAR
STARTCHAR ograve
ENCODING -1
SWIDTH 602 0
DWIDTH 6 0
BBX 6 8 0 0
BITMAP
002C23000000
0013B3140000
0000182B0000
0189BBC07400
34C50104D91C
569A0000B43D
32C40103D91C
018AB8BD7500
ENDCHAR
STARTCHAR oacute
ENCODING -1
SWIDTH 602 0
DWIDTH 6 0
BBX 6 8 0 0
BITMAP
0000002B2300
000021AF0A00
000035100000
0189BBC07400
34C50104D91C
569A0000B43D
32C40103D91C
018AB8BD7500
ENDCHAR
STARTCHAR ocircumflex
ENCODING -1
SWIDTH 602 0
DWIDTH 6 0
BBX 6 8 0 0
BITMAP
00002C230000
0015A7A90B00
0029151D2000
0189BBC07400
34C50104D91C
569A0000B43D
32C40103D91C
018AB8BD7500
ENDCHAR
STARTCHAR otilde
ENCODING -1
SWIDTH 602 0
DWIDTH 6 0
BBX 6 8 0 0
BITMAP
000210041000
007A999C5F00
001600160100
0189BBC07400
34C50104D91C
569A0000B43D
32C40103D91C
018AB8BD7500
ENDCHAR
STARTCHAR odieresis
ENCODING -1
SWIDTH 602 0
DWIDTH 6 0
BBX 6 7 0 0
BITMAP
006D748A5700
000000000000
0189BBC07400
34C50104D91C
569A0000B43D
32C40103D91C
018AB8BD7500
ENDCHAR
STARTCHAR divide
ENCODING -1
SWIDTH 602 0
DWIDTH 6 0
BBX 6 5 0 0
BITMAP
0000A4880000
1A2C3C392C16
58989898984A
0000715E0000
000043380000
ENDCHAR
STARTCHAR oslash
ENCODING -1
SWIDTH 602 0
DWIDTH 6 0
BBX 6 7 0 -1
BITMAP
000000000218
0085B7BDB93C
30C3017BE81B
529B6C56B43A
32E86704D919
59B8BCBF7200
1D0000000000
ENDCHAR
STARTCHAR ugrave
ENCODING -1
SWIDTH 602 0
DWIDTH 6 0
BBX 6 8 0 0
BITMAP
002C23000000
0013B3140000
0000182B0000
10D00000E004
10D00000E004
10D00000E104
09DA0009F404
009CAB90EB04
ENDCHAR
STARTCHAR uacute
ENCODING -1
SWIDTH 602 0
DWIDTH 6 0
BBX 6 8 0 0
BITMAP
0000002B2300
000021AF0A00
000035100000
10D00000E004
10D00000E004
10D00000E104
09DA0009F404
009CAB90EB04
ENDCHAR
STARTCHAR ucircumflex
ENCODING -1
SWIDTH 602 0
DWIDTH 6 0
BBX 6 8 0 0
BITMAP
00002C230000
0015A7A90B00
0029151D2000
10D00000E004
10D00000E004
10D00000E104
09DA0009F404
009CAB90EB04
ENDCHAR
STARTCHAR udieresis
ENCODING -1
SWIDTH 602 0
DWIDTH 6 0
BBX 6 7 0 0
BITMAP
006D748A5700
000000000000
10D00000E004
10D00000E004
10D00000E104
09DA0009F404
009CAB90EB04
ENDCHAR
STARTCHAR yacute
ENCODING -1
SWIDTH 602 0
DWIDTH 6 0
BBX 6 10 0 -2
BITMAP
0000002B2300
000021AF0A00
000035100000
4BA400009F4F
03D61310D804
0075726B7B00
0013CFCC1800
00009EA80000
0000B13D0000
14B796010000
ENDCHAR
STARTCHAR thorn
ENCODING -1
SWIDTH 602 0
DWIDTH 6 0
BBX 6 9 0 -2
BITMAP
16B600000000
18CC00000000
18E2AAB98300
18F10B01C824
18D20000A045
18F10A01C826
18E3ABB98600
18CC00000000
16B900000000
ENDCHAR
STARTCHAR ydieresis
ENCODING -1
SWIDTH 602 0
DWIDTH 6 0
BBX 6 9 0 -2
BITMAP
006D748A5700
000000000000
4BA400009F4F
03D61310D804
0075726B7B00
0013CFCC1800
00009EA80000
0000B13D0000
14B796010000
ENDCHAR
STARTCHAR Cacute
ENCODING -1
SWIDTH 602 0
DWIDTH 6 0
BBX 6 9 0 0
BITMAP
000000342300
00000F8E0400
000F80AD900E
01C2630A3813
2ED500000000
4DB600000000
3DC500000000
08E225000508
003AC4BAC619
ENDCHAR
STARTCHAR cacute
ENCODING -1
SWIDTH 602 0
DWIDTH 6 0
BBX 6 8 0 0
BITMAP
000000084700
000001974200
00000F350000
0038BFAEB50E
00D823000304
05E400000000
00D724000303
0038BFAEB40E
ENDCHAR
STARTCHAR Ccaron
ENCODING -1
SWIDTH 602 0
DWIDTH 6 0
BBX 6 9 0 0
BITMAP
000144074000
0000559E2700
000F80AD900E
01C2630A3813
2ED500000000
4DB600000000
3DC500000000
08E225000508
003AC4BAC619
ENDCHAR
STARTCHAR ccaron
ENCODING -1
SWIDTH 602 0
DWIDTH 6 0
BBX 6 8 0 0
BITMAP
000435013900
000088925400
0000094B0000
0038BFAEB50E
00D823000304
05E400000000
00D724000303
0038BFAEB40E
ENDCHAR
STARTCHAR dcroat
ENCODING -1
SWIDTH 602 0
DWIDTH 6 0
BBX 6 7 0 0
BITMAP
00001230C32B
0000235CEC52
029CB3A9E800
41AB001CF700
62820000E800
3FAB001BF700
019CB2A6CD00
ENDCHAR
STARTCHAR Gbreve
ENCODING -1
SWIDTH 602 0
DWIDTH 6 0
BBX 6 9 0 0
BITMAP
0035101D2A00
002497921500
001D8EAD7B03
0DD9430A5108
5AA700000000
798A004E7421
6897002EBD48
21DA0D00A448
0057C6BAC322
ENDCHAR
STARTCHAR gbreve
ENCODING -1
SWIDTH 602 0
DWIDTH 6 0
BBX 5 10 0 -2
BITMAP
001D020916
004DA4B032
00000B0800
0199A39DF1
41B0000EFA
628E0000E8
3BBB0018FD
0197BBA3EB
0004000FD6
0098B0BC4A
ENDCHAR
STARTCHAR Idotaccent
ENCODING -1
SWIDTH 602 0
DWIDTH 6 0
BBX 5 9 0 0
BITMAP
0000372C00
00004B3C00
06B0B0B0A3
0114967C13
00008C7000
00008C7000
00008C7000
00008C7000
07C4E5DFB5
ENDCHAR
STARTCHAR dotlessi
ENCODING -1
SWIDTH 602 0
DWIDTH 6 0
BBX 6 5 0 0
BITMAP
0081CA7C0000
0000687C0000
0000687C0000
0000687C0000
18A4CAD1A424
ENDCHAR
STARTCHAR Lslash
ENCODING -1
SWIDTH 602 0
DWIDTH 6 0
BBX 7 7 -1 0
BITMAP
0000AB00000000
0000F800000000
0000F8427E0000
000EFB7C060000
0194FC00000000
0000F800000000
0000F8C4C4C459
ENDCHAR
STARTCHAR lslash
ENCODING -1
SWIDTH 602 0
DWIDTH 6 0
BBX 5 7 0 0
BITMAP
27A4F11000
0000D41131
0000D4B063
026BF52500
5354D41000
0000CC1C00
00005FCBA9
ENDCHAR
STARTCHAR OE
ENCODING -1
SWIDTH 602 0
DWIDTH 6 0
BBX 6 7 0 0
BITMAP
015FA9B0B087
4DBF1FE62310
916200E41000
A35100E4C87B
995900E41000
689300E41000
09AAC7F6C49E
ENDCHAR
STARTCHAR oe
ENCODING -1
SWIDTH 602 0
DWIDTH 6 0
BBX 6 6 0 -1
BITMAP
61BEC1B8C05B
C905747C0CB8
D0005ED1ABA6
CC0167760000
8E8BC3C76E68
03391F174110
ENDCHAR
STARTCHAR Scedilla
ENCODING -1
SWIDTH 602 0
DWIDTH 6 0
BBX 6 9 0 -2
BITMAP
0045A3A76700
29CF20144B00
44C108000000
038DDFBD5400
0000012DDF27
0E0A0001C536
25C6BAC79402
0000099A0000
000E91820000
ENDCHAR
STARTCHAR scedilla
ENCODING -1
SWIDTH 602 0
DWIDTH 6 0
BBX 4 7 1 -2
BITMAP
7EB7AB7A
E5140001
51B3C264
030011E5
B3ACB972
00099A00
0E918200
ENDCHAR
STARTCHAR Scaron
ENCODING -1
SWIDTH 602 0
DWIDTH 6 0
BBX 6 9 0 0
BITMAP
0023242E1900
00068E870100
0045A3A76700
29CF20144B00
44C108000000
038DDFBD5400
0000012DDF27
0E0A0001C536
25C6BAC79402
ENDCHAR
STARTCHAR scaron
ENCODING -1
SWIDTH 602 0
DWIDTH 6 0
BBX 4 8 1 0
BITMAP
28131B1F
17A6A80C
002F2500
7EB7AB7A
E4140001
50B3C264
030011E5
B4ACB972
ENDCHAR
STARTCHAR Ydieresis
ENCODING -1
SWIDTH 602 0
DWIDTH 6 0
BBX 6 9 0 0
BITMAP
002D30392400
004044513300
6D4800005B5A
23D60915D912
007A809A5D00
0006CEBC0100
00008C700000
00008C700000
00008C700000
ENDCHAR
STARTCHAR Zcaron
ENCODING -1
SWIDTH 602 0
DWIDTH 6 0
BBX 6 9 0 0
BITMAP
002837451900
00017A700000
19B0B0B0B056
03141421DD2B
0000009D6A00
00004FB30100
0016D2160000
01AF48000000
38F6C4C4C475
ENDCHAR
STARTCHAR zcaron
ENCODING -1
SWIDTH 602 0
DWIDTH 6 0
BBX 5 8 0 0
BITMAP
0028131B1F
0017A6A80C
00002F2500
0099A8B2F5
000002AB58
0000897A00
00659E0100
07FAB2ACAA
ENDCHAR
STARTCHAR florin
ENCODING -1
SWIDTH 602 0
DWIDTH 6 0
BBX 6 9 0 -2
BITMAP
0000005CBD80
000001D80700
000018C20000
0055BBDCA410
0000706B0000
00009E3F0000
0000CD140000
0117D2000000
A8B944000000
ENDCHAR
STARTCHAR circumflex
ENCODING -1
SWIDTH 602 0
DWIDTH 6 0
BBX 4 3 1 5
BITMAP
002C2300
15A7A90B
29151D20
ENDCHAR
STARTCHAR caron
ENCODING -1
SWIDTH 602 0
DWIDTH 6 0
BBX 4 3 1 5
BITMAP
28131B1F
17A6A80C
002F2500
ENDCHAR
STARTCHAR breve
ENCODING -1
SWIDTH 602 0
DWIDTH 6 0
BBX 4 3 1 5
BITMAP
1C020916
4CA4B032
000B0800
ENDCHAR
STARTCHAR dotaccent
ENCODING -1
SWIDTH 602 0
DWIDTH 6 0
BBX 2 1 2 6
BITMAP
8268
ENDCHAR
STARTCHAR ring
ENCODING -1
SWIDTH 602 0
DWIDTH 6 0
BBX 4 4 1 5
BITMAP
00040300
24A5A717
4277882F
014C4300
ENDCHAR
STARTCHAR ogonek
ENCODING -1
SWIDTH 602 0
DWIDTH 6 0
BBX 2 2 2 -2
BITMAP
A002
8E73
ENDCHAR
STARTCHAR tilde
ENCODING -1
SWIDTH 602 0
DWIDTH 6 0
BBX 4 3 1 5
BITMAP
02100410
79999C5F
16001601
ENDCHAR
STARTCHAR hungarumlaut
ENCODING -1
SWIDTH 602 0
DWIDTH 6 0
BBX 5 3 1 5
BITMAP
002D174701
07B05B6D00
18243B0100
ENDCHAR
STARTCHAR Omega
ENCODING -1
SWIDTH 602 0
DWIDTH 6 0
BBX 6 7 0 0
BITMAP
001E77711500
1AD85764D40B
777E00009B59
935E00007C76
777A0000965B
1BC80911CC0D
82E986A2E16C
ENDCHAR
STARTCHAR pi
ENCODING -1
SWIDTH 602 0
DWIDTH 6 0
BBX 6 6 0 -1
BITMAP
67E3AAACE457
00DC0004D800
00DC0004D800
00DC0004D800
00DC0001E358
000000001513
ENDCHAR
STARTCHAR endash
ENCODING -1
SWIDTH 602 0
DWIDTH 6 0
BBX 6 1 0 2
BITMAP
A0A0A0A0A091
ENDCHAR
STARTCHAR emdash
ENCODING -1
SWIDTH 602 0
DWIDTH 6 0
BBX 6 1 0 2
BITMAP
A0A0A0A0A091
ENDCHAR
STARTCHAR quoteleft
ENCODING -1
SWIDTH 602 0
DWIDTH 6 0
BBX 2 3 2 4
BITMAP
22B6
A37F
8749
ENDCHAR
STARTCHAR quoteright
ENCODING -1
SWIDTH 602 0
DWIDTH 6 0
BBX 2 3 2 4
BITMAP
4EDD
7797
7718
ENDCHAR
STARTCHAR quotesinglbase
ENCODING -1
SWIDTH 602 0
DWIDTH 6 0
BBX 3 4 1 -2
BITMAP
003739
009F8F
00D520
033600
ENDCHAR
STARTCHAR quotedblleft
ENCODING -1
SWIDTH 602 0
DWIDTH 6 0
BBX 4 3 1 4
BITMAP
4C8A22B6
D64BA37F
AA268749
ENDCHAR
STARTCHAR quotedblright
ENCODING -1
SWIDTH 602 0
DWIDTH 6 0
BBX 4 3 1 4
BITMAP
80AB52D9
AB637B93
8C047916
ENDCHAR
STARTCHAR quotedblbase
ENCODING -1
SWIDTH 602 0
DWIDTH 6 0
BBX 4 4 1 -2
BITMAP
30401F51
8BA35BD3
C42F965D
38003602
ENDCHAR
STARTCHAR dagger
ENCODING -1
SWIDTH 602 0
DWIDTH 6 0
BBX 6 8 0 -1
BITMAP
000053420000
000078600000
27B0D6CEB016
000078600000
000078600000
000078600000
000078600000
000069540000
ENDCHAR
STARTCHAR daggerdbl
ENCODING -1
SWIDTH 602 0
DWIDTH 6 0
BBX 6 8 0 -1
BITMAP
000053420000
000078600000
27B0D6CEB016
000078600000
000078600000
27B0D6CEB016
000078600000
000069540000
ENDCHAR
STARTCHAR bullet
ENCODING -1
SWIDTH 602 0
DWIDTH 6 0
BBX 4 3 1 2
BITMAP
129F9408
6EFFFF52
25D2C415
ENDCHAR
STARTCHAR ellipsis
ENCODING -1
SWIDTH 602 0
DWIDTH 6 0
BBX 6 2 0 0
BITMAP
39373D334130
9C98A88CB484
ENDCHAR
STARTCHAR perthousand
ENCODING -1
SWIDTH 602 0
DWIDTH 6 0
BBX 7 7 -1 0
BITMAP
00275F0D000000
02AA388E000000
01A67675367E21
00218F814C0500
006E9838368D32
009E0AA2A2079D
00709483778F71
ENDCHAR
STARTCHAR guilsinglleft
ENCODING -1
SWIDTH 602 0
DWIDTH 6 0
BBX 3 5 1 0
BITMAP
000054
059071
37BD09
003CA9
000016
ENDCHAR
STARTCHAR guilsinglright
ENCODING -1
SWIDTH 602 0
DWIDTH 6 0
BBX 3 5 2 0
BITMAP
530000
837E01
0FC825
B52E00
160000
ENDCHAR
STARTCHAR Euro
ENCODING -1
SWIDTH 602 0
DWIDTH 6 0
BBX 6 7 0 0
BITMAP
000472AC8D06
00868A0C3D09
25EA40340C00
37F244440800
56F77E430000
00B247000803
001FBAB3C109
ENDCHAR
STARTCHAR trademark
ENCODING -1
SWIDTH 602 0
DWIDTH 6 0
BBX 6 3 0 4
BITMAP
7B8363566945
3854807D8B64
334D740D285B
ENDCHAR
STARTCHAR partialdiff
ENCODING -1
SWIDTH 602 0
DWIDTH 6 0
BBX 6 7 0 0
BITMAP
000001030000
0002C3885300
00000000B500
00377842DF02
02E01138EB00
0ADA004B9B00
00824F881300
ENDCHAR
STARTCHAR Delta
ENCODING -1
SWIDTH 602 0
DWIDTH 6 0
BBX 7 7 -1 0
BITMAP
0000003C330000
000003D3C60000
00004898B12F00
0000AB37509200
0016D10106D908
0073770000905A
01D7D2C4C4D8BE
ENDCHAR
STARTCHAR product
ENCODING -1
SWIDTH 602 0
DWIDTH 6 0
BBX 6 10 0 -3
BITMAP
2FA49898A61F
44780000902C
44780000902C
44780000902C
44780000902C
44780000902C
44780000902C
44780000902C
44780000902C
050800000903
ENDCHAR
STARTCHAR summation
ENCODING -1
SWIDTH 602 0
DWIDTH 6 0
BBX 6 10 0 -3
BITMAP
31AAA0A0A00F
04AE15000000
0024A3010000
000068600000
000001C50400
00004F7A0000
000EB6050000
009237000000
30E08C8C8C1B
051010101003
ENDCHAR
STARTCHAR minus
ENCODING -1
SWIDTH 602 0
DWIDTH 6 0
BBX 6 2 0 2
BITMAP
25404040401F
4A808080803E
ENDCHAR
STARTCHAR fraction
ENCODING -1
SWIDTH 602 0
DWIDTH 6 0
BBX 6 8 0 -1
BITMAP
000000039707
000000589000
000003CE1A00
000058910000
0003CE1A0000
005893000000
03CE1B000000
428500000000
ENDCHAR
STARTCHAR periodcentered
ENCODING -1
SWIDTH 602 0
DWIDTH 6 0
BBX 2 2 2 2
BITMAP
937B
5446
ENDCHAR
STARTCHAR radical
ENCODING -1
SWIDTH 602 0
DWIDTH 6 0
BBX 6 9 0 -1
BITMAP
000000001767
000000006C45
00000000AD04
0221001B9600
62C203704100
00723DAF0300
0021AD930000
0000CF3E0000
00001C020000
ENDCHAR
STARTCHAR infinity
ENCODING -1
SWIDTH 602 0
DWIDTH 6 0
BBX 6 4 0 1
BITMAP
19782A32720C
9B35ACA73B88
9E019980079C
48AC6C7EAF39
ENDCHAR
STARTCHAR integral
ENCODING -1
SWIDTH 602 0
DWIDTH 6 0
BBX 6 9 0 -2
BITMAP
0000007BD522
00002F942D05
000067790000
0000826F0000
00008D690000
0000945A0000
0000A43A0000
2157B4080000
269A41000000
ENDCHAR
STARTCHAR approxequal
ENCODING -1
SWIDTH 602 0
DWIDTH 6 0
BBX 6 4 0 1
BITMAP
033C36020012
658392C6C251
2C998D392A3D
4027358A9424
ENDCHAR
STARTCHAR notequal
ENCODING -1
SWIDTH 602 0
DWIDTH 6 0
BBX 6 6 0 0
BITMAP
000000004911
1828284DD31A
5898B7E2984A
3358D386582B
40E8846C6C35
287200000000
ENDCHAR
STARTCHAR lessequal
ENCODING -1
SWIDTH 602 0
DWIDTH 6 0
BBX 6 5 0 0
BITMAP
0000094A945E
49B0B87D3804
47B0BC803904
00000949945E
75C4C4C4C45C
ENDCHAR
STARTCHAR greaterequal
ENCODING -1
SWIDTH 602 0
DWIDTH 6 0
BBX 6 5 0 0
BITMAP
728C41060000
063F84BAAA39
064087BEA938
728C41050000
72C4C4C4C45F
ENDCHAR
STARTCHAR lozenge
ENCODING -1
SWIDTH 602 0
DWIDTH 6 0
BBX 6 11 0 -3
BITMAP
000010070000
000078660000
00127C870700
007816276700
127A00008508
4E3F00005835
048900018C01
005D30484500
0004898C0100
00005E450000
000003010000
ENDCHAR
STARTCHAR fi
ENCODING -1
SWIDTH 602 0
DWIDTH 6 0
BBX 6 7 0 0
BITMAP
0073BE7EB327
00D909001204
85F3A2A0E42C
00DC0400B42C
00DC0400B42C
00DC0400B42C
00DC0400B42C
ENDCHAR
STARTCHAR fl
ENCODING -1
SWIDTH 602 0
DWIDTH 6 0
BBX 6 7 0 0
BITMAP
0073C1B4E527
00D90900B828
85F3A244B828
00DC0400B828
00DC0400B828
00DC0400B828
00DC0400B828
ENDCHAR
STARTCHAR .notdef
ENCODING -1
SWIDTH 602 0
DWIDTH 6 0
BBX 6 9 0 -2
BITMAP
3C787878782F
80180C0C2F64
800C00002464
800C00002464
800C00002464
800C00002464
800C00002464
800C00002464
50868484883F
ENDCHAR
STARTCHAR c6459
ENCODING -1
SWIDTH 602 0
DWIDTH 6 0
BBX 4 2 1 5
BITMAP
53586942
1B1C2215
ENDCHAR
STARTCHAR c6460
ENCODING -1
SWIDTH 602 0
DWIDTH 6 0
BBX 3 2 2 5
BITMAP
219102
351000
ENDCHAR
STARTCHAR c6461
ENCODING -1
SWIDTH 602 0
DWIDTH 6 0
BBX 4 2 1 5
BITMAP
4190624D
2B053C09
ENDCHAR
STARTCHAR c6468
ENCODING -1
SWIDTH 602 0
DWIDTH 6 0
BBX 3 2 1 5
BITMAP
069914
00182B
ENDCHAR
STARTCHAR c6470
ENCODING -1
SWIDTH 602 0
DWIDTH 6 0
BBX 4 2 1 5
BITMAP
08948E02
211D2717
ENDCHAR
STARTCHAR c6472
ENCODING -1
SWIDTH 602 0
DWIDTH 6 0
BBX 4 2 1 5
BITMAP
2878841A
003A3100
ENDCHAR
STARTCHAR c6477
ENCODING -1
SWIDTH 602 0
DWIDTH 6 0
BBX 6 2 0 2
BITMAP
0010487C8423
6B753C080000
ENDCHAR
STARTCHAR c6478
ENCODING -1
SWIDTH 602 0
DWIDTH 6 0
BBX 4 5 1 2
BITMAP
002A8B00
0985A900
895DC119
2938BC14
00000800
ENDCHAR
STARTCHAR c6475
ENCODING -1
SWIDTH 602 0
DWIDTH 6 0
BBX 4 2 1 5
BITMAP
5677863E
012F2700
ENDCHAR
STARTCHAR c6476
ENCODING -1
SWIDTH 602 0
DWIDTH 6 0
BBX 2 2 2 5
BITMAP
614D
211B
ENDCHAR
ENDFONT
